<svg width="88" height="99" viewBox="0 0 88 99" fill="none" xmlns="http://www.w3.org/2000/svg">
<path d="M7.5 0.5V91.4231H42.7564C100.712 91.4231 104.093 1.9665 42.7564 0.5H7.5Z" stroke="black"/>
<path d="M32.1312 21.031V69.9144H45.7533C68.1458 69.9144 69.452 21.8195 45.7533 21.031H32.1312Z" stroke="black"/>
<path d="M0.5 7.5718V98.4949H35.7564C93.7122 98.4949 97.0929 9.0383 35.7564 7.5718H0.5Z" stroke="black"/>
<path d="M25.1312 28.1028V76.9862H38.7533C61.1458 76.9862 62.452 28.8913 38.7533 28.1028H25.1312Z" stroke="black"/>
<line y1="-0.705" x2="9.9509" y2="-0.705" transform="matrix(0.70349 -0.710705 0.70349 0.710705 1 8.07692)" stroke="black" stroke-width="1.41"/>
<line y1="-0.705" x2="9.9509" y2="-0.705" transform="matrix(0.70349 -0.710705 0.70349 0.710705 1 99)" stroke="black" stroke-width="1.41"/>
</svg>
