<svg width="89" height="100" viewBox="0 0 89 100" fill="none" xmlns="http://www.w3.org/2000/svg">
<path fill-rule="evenodd" clip-rule="evenodd" d="M32.1312 21.031V28.1028H32.13V29.1028H32.1312V70.91H46.629C48.1981 70.8732 49.6639 70.6058 51.025 70.1409C51.3675 70.0207 51.6519 69.912 51.9105 69.8042C52.3124 69.6366 52.6528 69.4708 53.0544 69.265C55.6412 67.901 57.7785 65.7678 59.4536 63.1573C62.4164 58.5398 63.9548 52.4063 64.0374 46.2751C64.12 40.144 62.7475 33.9584 59.8252 29.2385C56.8939 24.504 52.3917 21.235 46.2699 21.0313L46.2616 21.031H32.1312ZM53.9259 67.574C55.7562 66.3259 57.3199 64.6307 58.6119 62.6172C61.4513 58.1923 62.9568 52.2528 63.0375 46.2616C63.1182 40.2705 61.7733 34.2845 58.975 29.7649C56.1871 25.262 51.9683 22.2242 46.2449 22.031H33.1312V28.1028H39.2616L39.2699 28.1031C45.3917 28.3068 49.8939 31.5758 52.8252 36.3103C55.7475 41.0302 57.12 47.2158 57.0374 53.3469C56.9698 58.3652 55.9269 63.3851 53.9259 67.574ZM33.1312 29.1028H39.2449C44.9683 29.296 49.1871 32.3338 51.975 36.8367C54.7733 41.3563 56.1182 47.3423 56.0375 53.3334C55.9637 58.8125 54.6982 64.2483 52.3107 68.5221C50.5096 69.4181 48.4892 69.9144 46.2533 69.9144H33.1312V29.1028Z" fill="black"/>
<path fill-rule="evenodd" clip-rule="evenodd" d="M7.5 0.5V0.511192L0.511076 7.5718H0.5V99.4949H1.49494L1.5 99.5L1.50506 99.4949H36.2564C52.1266 99.4949 63.9474 92.8555 71.5189 83.1543C82.4837 74.4549 88.2335 60.758 88.4909 47.0209C88.7042 35.6412 85.1553 24.1972 77.6616 15.4991C70.1601 6.79187 58.7339 0.869909 43.2684 0.500143L43.2564 0.5H7.5ZM2.49491 98.4949H36.2564C50.0394 98.4949 60.7027 93.3827 68.1041 85.5895C61.4174 89.859 53.1188 92.4231 43.2564 92.4231H8.49565L8.50036 92.4278L2.49491 98.4949ZM7.5 91.4343V8.5718H1.50507L1.5 8.57692V97.4958L7.5 91.4343ZM87.4911 47.0021C87.2656 59.035 82.7599 70.9935 74.1735 79.4664C72.9207 80.7422 71.8181 81.6892 70.8024 82.4424C63.7727 87.982 54.5645 91.4231 43.2564 91.4231H8.5V1.5H43.2504C58.4501 1.86486 69.6006 7.6745 76.904 16.1518C84.2161 24.6392 87.7004 35.8343 87.4911 47.0021ZM2.49492 7.5718L7.5 2.51538V7.5718H2.49492Z" fill="black"/>
</svg>
