<svg width="88" height="98" viewBox="0 0 88 98" fill="none" xmlns="http://www.w3.org/2000/svg">
<path d="M35.5407 98H0.841797V7.81818H35.1884C44.4649 7.81818 52.4791 9.62358 59.231 13.2344C66.0123 16.8158 71.2376 21.9825 74.9071 28.7344C78.606 35.4569 80.4554 43.5151 80.4554 52.9091C80.4554 62.303 78.6207 70.3759 74.9512 77.1278C71.2817 83.8504 66.0856 89.017 59.3631 92.6278C52.6406 96.2093 44.6998 98 35.5407 98ZM25.3248 77.2159H34.66C39.1221 77.2159 42.9237 76.4967 46.0648 75.0582C49.2353 73.6198 51.6425 71.1392 53.2864 67.6165C54.9597 64.0937 55.7963 59.1913 55.7963 52.9091C55.7963 46.6269 54.945 41.7244 53.2424 38.2017C51.5691 34.679 49.1032 32.1984 45.8446 30.7599C42.6155 29.3215 38.6524 28.6023 33.9554 28.6023H25.3248V77.2159Z" fill="#8967F8"/>
<rect x="7.86145" y="0.794798" width="10.1567" height="9.92721" transform="rotate(45 7.86145 0.794798)" fill="#8967F8"/>
<path d="M42.5407 91H7.8418V0.818179H42.1884C51.4649 0.818179 59.4791 2.62358 66.231 6.23438C73.0123 9.81581 78.2376 14.9825 81.9071 21.7344C85.606 28.4569 87.4554 36.5151 87.4554 45.9091C87.4554 55.303 85.6207 63.3759 81.9512 70.1278C78.2817 76.8504 73.0856 82.017 66.3631 85.6278C59.6406 89.2093 51.6998 91 42.5407 91ZM32.3248 70.2159H41.66C46.1221 70.2159 49.9237 69.4967 53.0648 68.0582C56.2353 66.6198 58.6425 64.1392 60.2864 60.6165C61.9597 57.0937 62.7963 52.1913 62.7963 45.9091C62.7963 39.6269 61.945 34.7244 60.2424 31.2017C58.5691 27.679 56.1032 25.1984 52.8446 23.7599C49.6155 22.3215 45.6524 21.6023 40.9554 21.6023H32.3248V70.2159Z" fill="black"/>
</svg>

